<svg clip-rule="evenodd" fill-rule="evenodd" stroke-linejoin="round" stroke-miterlimit="1.41421" viewBox="0 0 560 400" xmlns="http://www.w3.org/2000/svg" xmlns:xlink="http://www.w3.org/1999/xlink"><linearGradient id="a" gradientTransform="matrix(7.47645 -15.1603 15.1603 7.47645 55.3734 88.8878)" gradientUnits="userSpaceOnUse" x1="0" x2="1" y1="0" y2="0"><stop offset="0" stop-color="#9a1e22"/><stop offset=".6" stop-color="#ca2d29"/><stop offset="1" stop-color="#ca2d29"/></linearGradient><linearGradient id="b" gradientTransform="matrix(0 12.3742 -12.3742 0 70.0222 72.5984)" gradientUnits="userSpaceOnUse" x1="0" x2="1" y1="0" y2="0"><stop offset="0" stop-color="#a51e23"/><stop offset="1" stop-color="#a51e24"/></linearGradient><linearGradient id="c" gradientTransform="matrix(0 14.0175 -14.0175 0 10.863 72.381)" gradientUnits="userSpaceOnUse" x1="0" x2="1" y1="0" y2="0"><stop offset="0" stop-color="#b32626"/><stop offset="1" stop-color="#8c181c"/></linearGradient><linearGradient id="d" gradientTransform="matrix(0 -38.9203 38.9203 0 32.5665 47.0357)" gradientUnits="userSpaceOnUse" x1="0" x2="1" y1="0" y2="0"><stop offset="0" stop-color="#7e131a"/><stop offset=".8" stop-color="#be2828"/><stop offset="1" stop-color="#ab1f25"/></linearGradient><linearGradient id="e" gradientUnits="userSpaceOnUse" x1="6.1369" x2="63.7301" y1="56.1767" y2="56.1767"><stop offset="0" stop-color="#4a1715"/><stop offset="1" stop-color="#411211"/></linearGradient><linearGradient id="f" gradientTransform="matrix(0 52.5492 -52.5492 0 35.9044 .42)" gradientUnits="userSpaceOnUse" x1="0" x2="1" y1="0" y2="0"><stop offset="0" stop-color="#de472f"/><stop offset="1" stop-color="#c82f29"/></linearGradient><linearGradient id="g" gradientTransform="matrix(0 -27.6153 27.6153 0 36.1125 72.612)" gradientUnits="userSpaceOnUse" x1="0" x2="1" y1="0" y2="0"><stop offset="0" stop-color="#771215"/><stop offset="1" stop-color="#8c181c"/></linearGradient><g transform="matrix(1.02763 0 0 1.02763 89.8881 154.568)"><path d="m5.946 61.137.19-.359.302-.12 1.208 11.933-.85.022z" fill="#1f1011" fill-rule="nonzero"/><path d="m59.177 40.099-.181-.344-.432.172 4.237 32.672h1.742z" fill="#361514" fill-rule="nonzero"/><path d="m50.499 72.599 2.473 13.8 12.51-1.426 10.832-12.374z" fill="url(#a)"/><path d="m76.314 72.599h-12.584l1.752 12.374z" fill="url(#b)"/><path d="m0 72.381 8.258 12.443 10.105 1.575 3.363-13.786-14.46-.022z" fill="url(#c)"/><path d="m7.266 72.591-7.266-.21 8.312 12.553z" fill="#541412" fill-rule="nonzero"/><path d="m7.266 72.591-1.13-11.813-6.136 11.603z" fill="#1f1011" fill-rule="nonzero"/><path d="m58.996 39.755-20.938-39.335-31.922 60.358z" fill="url(#d)"/><path d="m6.136 60.778 52.86-21.023 4.734 32.844-56.464-.008z" fill="url(#e)"/><path d="m58.996 39.755 4.734 32.844h12.584z" fill="#361514" fill-rule="nonzero"/><path d="m25.834 52.969 20.141-7.972-7.917-44.577z" fill="url(#f)"/><path d="m45.975 44.997 4.524 27.602-28.773.014 4.108-19.644z" fill="url(#g)"/><g fill-rule="nonzero"><path d="m99.624 2.344h1.793v85.307h-1.793z" fill="#a7a8ac"/><path d="m951.65 264.579c3.025-8.896 7.458-16.583 13.296-23.05 5.837-6.466 12.921-11.554 21.25-15.262 8.325-3.704 17.854-5.563 28.594-5.563 10.61 0 20.11 1.859 28.5 5.563 8.39 3.708 15.51 8.796 21.35 15.262 5.84 6.467 10.27 14.154 13.29 23.05 3.02 8.892 4.53 18.592 4.53 29.109 0 10.787-1.51 20.62-4.53 29.516s-7.42 16.575-13.19 23.046c-5.78 6.471-12.86 11.492-21.25 15.058-8.39 3.575-17.96 5.359-28.7 5.359s-20.307-1.784-28.698-5.359c-8.392-3.566-15.475-8.587-21.246-15.058s-10.171-14.15-13.196-23.046c-3.017-8.896-4.525-18.729-4.525-29.516 0-10.517 1.508-20.217 4.525-29.109zm256.48-18.2c-8.86-5.254-18.53-7.879-29-7.879-8.05 0-15.4 1.383-22.05 4.142-6.65 2.762-12.35 6.604-17.12 11.525-4.77 4.92-8.43 10.75-10.98 17.487-2.55 6.738-3.82 14.083-3.82 22.034 0 8.358 1.37 15.904 4.12 22.641 2.75 6.742 6.55 12.534 11.39 17.384 4.83 4.854 10.47 8.595 16.91 11.224 6.45 2.63 13.3 3.942 20.55 3.942 2.54 0 5.23-.167 8.05-.504 2.82-.338 5.6-.808 8.36-1.417 2.75-.604 5.37-1.312 7.85-2.125 2.49-.808 4.6-1.75 6.35-2.825l1.21 19.609c-5.37 2.291-11.02 3.7-16.92 4.241-5.91.538-10.95.809-15.11.809-11.14 0-21.28-1.721-30.41-5.154-9.13-3.438-16.91-8.355-23.36-14.759-6.45-6.4-11.45-14.15-15-23.25-3.56-9.096-5.34-19.233-5.34-30.425 0-10.917 1.84-20.821 5.54-29.712 3.69-8.896 8.86-16.509 15.5-22.85 6.65-6.33 14.5-11.217 23.57-14.654 9.06-3.438 18.96-5.159 29.71-5.159 5.5 0 10.87.442 16.1 1.317 5.24.879 10.41 2.458 15.52 4.75zm-401.784 59.438c0 19.945-4.729 35.075-14.196 45.387-9.462 10.309-22.929 15.463-40.379 15.463-17.458 0-30.917-5.154-40.379-15.463-9.467-10.312-14.2-25.442-14.2-45.387v-82.684h20.141v80.055c0 6.741.567 12.908 1.709 18.499 1.141 5.592 3.054 10.413 5.741 14.455 2.684 4.041 6.242 7.179 10.675 9.4 4.429 2.22 9.867 3.337 16.313 3.337 6.441 0 11.883-1.117 16.312-3.337 4.429-2.221 7.988-5.359 10.671-9.4 2.688-4.042 4.6-8.863 5.742-14.455 1.141-5.591 1.712-11.758 1.712-18.499v-80.055h20.138zm-129.692 58.425h-21.954l-14.3-35.584h-68.875l-14.3 35.584h-21.146l60.017-141.109h21.146zm682.526 0h-21.95l-14.3-35.584h-68.88l-14.3 35.584h-21.15l60.02-141.109h21.15zm-468.647 0h-20.141v-123.317h-43.705v-17.792h107.546v17.792h-43.7zm529.267 0h-41.49v-141.109h41.49c10.47 0 20.23 1.584 29.3 4.75 9.06 3.171 16.98 7.717 23.76 13.646s12.12 13.175 16.02 21.734c3.89 8.558 5.83 18.295 5.83 29.212 0 11.863-1.74 22.275-5.23 31.233-3.49 8.963-8.46 16.442-14.9 22.442-6.45 5.996-14.3 10.512-23.57 13.546-9.26 3.029-19.67 4.546-31.21 4.546zm-448.612-50.138c1.816 6.604 4.599 12.504 8.362 17.688 3.754 5.191 8.558 9.337 14.4 12.437 5.838 3.1 12.78 4.65 20.84 4.65s15.01-1.55 20.85-4.65 10.64-7.246 14.4-12.437c3.75-5.184 6.54-11.084 8.36-17.688 1.81-6.6 2.71-13.408 2.71-20.416 0-7.142-.97-14.05-2.91-20.721-1.95-6.671-4.84-12.563-8.67-17.692-3.82-5.117-8.63-9.196-14.4-12.229s-12.55-4.546-20.34-4.546-14.57 1.513-20.34 4.546c-5.775 3.033-10.571 7.112-14.4 12.229-3.825 5.129-6.713 11.021-8.658 17.692-1.95 6.671-2.921 13.579-2.921 20.721 0 7.008.904 13.816 2.717 20.416zm427.262 32.35h21.14c17.32 0 30.62-4.312 39.88-12.941 9.26-8.621 13.89-22.038 13.89-40.23 0-8.216-1.3-15.566-3.92-22.037-2.62-6.467-6.24-11.958-10.87-16.475-4.64-4.517-10.07-7.95-16.32-10.313-6.24-2.354-12.99-3.533-20.24-3.533h-23.56zm-792.488-104.316-27.995 69.945h55.987zm682.528 0-27.99 69.945h55.98zm231.48 12.595c-9.9 0-17.96-8.054-17.96-17.958 0-9.9 8.06-17.958 17.96-17.958 9.91 0 17.96 8.058 17.96 17.958 0 9.904-8.05 17.958-17.96 17.958zm0-33.116c-8.36 0-15.16 6.8-15.16 15.158 0 8.363 6.8 15.158 15.16 15.158s15.16-6.795 15.16-15.158c0-8.358-6.8-15.158-15.16-15.158zm-4.33 24.141h-2.5v-19.92h7.46c.82 0 1.6.075 2.37.229.76.158 1.48.487 2.16.991.68.505 1.2 1.142 1.57 1.917.37.771.55 1.583.55 2.438 0 1.183-.33 2.25-.98 3.195-.66.95-1.57 1.588-2.74 1.917l3.93 9.233h-2.62l-3.69-8.625h-5.51zm4.67-10.658c.68 0 1.3-.054 1.84-.175.56-.113 1.08-.425 1.59-.925.35-.35.61-.754.77-1.204.16-.458.24-.929.24-1.413 0-.579-.1-1.104-.33-1.566-.22-.467-.57-.863-1.06-1.192-.44-.313-.88-.496-1.32-.55-.43-.058-.91-.092-1.44-.092h-4.96v7.117zm-736.056-137.463c0 10.263-1.667 18.721-4.996 25.38-3.329 6.662-7.525 11.887-12.587 15.687-5.063 3.796-10.559 6.429-16.488 7.892-5.925 1.462-11.421 2.196-16.483 2.196s-10.558-.734-16.488-2.196c-5.929-1.463-11.42-4.096-16.483-7.892-5.067-3.8-9.258-9.025-12.587-15.687-3.334-6.659-4.996-15.117-4.996-25.38v-90.716h13.787v90.716c0 5.73.767 10.992 2.296 15.788 1.533 4.796 3.863 8.925 6.996 12.387 3.129 3.467 6.992 6.163 11.587 8.096 4.596 1.934 9.892 2.896 15.888 2.896s11.287-.962 15.883-2.896c4.596-1.933 8.463-4.629 11.592-8.096 3.129-3.462 5.462-7.591 6.992-12.387 1.533-4.796 2.3-10.058 2.3-15.788v-90.716h13.787zm506.746 30.971c4.13 2.667 8.65 4.7 13.59 6.096 4.92 1.4 10.65 2.1 17.18 2.1 4.26 0 8.29-.567 12.09-1.7 3.79-1.129 7.12-2.862 9.99-5.191 2.86-2.334 5.13-5.3 6.79-8.896 1.67-3.596 2.5-7.859 2.5-12.788 0-4.525-1.56-8.492-4.69-11.887-3.13-3.396-7.1-6.596-11.9-9.592-4.79-3-9.92-5.929-15.38-8.796-5.46-2.862-10.59-6.025-15.38-9.492-4.8-3.458-8.77-7.391-11.89-11.787-3.14-4.396-4.7-9.654-4.7-15.783 0-5.596 1.13-10.625 3.4-15.088 2.26-4.462 5.39-8.291 9.39-11.492 4-3.195 8.69-5.625 14.09-7.291 5.39-1.667 11.15-2.5 17.28-2.5 3.46 0 7.69.3 12.69.9 4.99.6 9.89 1.833 14.68 3.7l-2.19 12.587c-3.07-1.733-6.89-3.033-11.49-3.9-4.6-.862-9.23-1.296-13.89-1.296-3.59 0-7.2.4-10.79 1.2-3.59.796-6.83 2.13-9.69 3.996-2.87 1.863-5.2 4.33-7 7.392-1.79 3.067-2.69 6.862-2.69 11.388 0 4.666 1.56 8.662 4.69 11.991 3.13 3.333 7.1 6.429 11.89 9.292 4.8 2.867 9.92 5.666 15.39 8.391 5.46 2.734 10.59 5.896 15.39 9.492 4.79 3.596 8.75 7.763 11.89 12.488 3.12 4.733 4.69 10.491 4.69 17.287 0 7.063-1.37 13.088-4.1 18.084-2.73 4.995-6.29 9.058-10.68 12.187-4.4 3.133-9.33 5.433-14.79 6.896-5.47 1.462-10.86 2.196-16.19 2.196-6.79 0-12.82-.6-18.08-1.796-5.26-1.2-9.76-2.6-13.49-4.196zm-376.563-79.125c2.467-8.662 6.225-16.316 11.292-22.983 5.063-6.658 11.454-11.987 19.179-15.983 7.729-4 16.854-5.996 27.379-5.996 10.521 0 19.646 1.996 27.376 5.996 7.717 3.996 14.117 9.325 19.177 15.983 5.06 6.667 8.83 14.321 11.29 22.983 2.47 8.663 3.63 17.717 3.5 27.175-.13 10.659-1.5 20.417-4.09 29.271-2.6 8.863-6.47 16.459-11.59 22.783-5.13 6.326-11.53 11.259-19.187 14.784-7.663 3.529-16.488 5.296-26.476 5.296-9.991 0-18.816-1.767-26.479-5.296-7.662-3.525-14.054-8.458-19.179-14.784-5.133-6.324-8.996-13.92-11.592-22.783-2.599-8.854-3.966-18.612-4.095-29.271-.134-9.458 1.029-18.512 3.495-27.175zm351.183 96.913h-70.74v-139.475h68.34v11.987h-54.55v49.754h51.75v11.992h-51.75v53.75h56.95zm-408.428 0h-13.792v-127.488h-41.162v-11.987h96.112v11.987h-41.158zm227.588 0h-24.38v-139.475h34.58c12.52 0 23.17 1.696 31.97 5.096 8.79 3.395 15.98 8.191 21.58 14.383 5.59 6.196 9.69 13.558 12.29 22.083 2.59 8.525 3.89 17.85 3.89 27.975 0 12.659-2 23.413-5.99 32.271-4 8.863-9.56 16.088-16.69 21.679-7.13 5.596-15.55 9.659-25.28 12.192-9.72 2.533-20.37 3.796-31.97 3.796zm325.51 0h-13.79v-139.475h13.79v62.541l62.74-62.541h17.99l-67.54 65.737 73.33 73.738h-18.98l-67.54-69.738zm-745.927 0h-14.388l-14.987-37.367h-70.334l-14.987 37.367h-13.388l57.146-139.475h15.587zm286.641-124.688c-5.929 3.467-10.858 8.059-14.787 13.788-3.93 5.729-6.825 12.187-8.692 19.379-1.867 7.196-2.796 14.458-2.796 21.783 0 7.459.929 14.755 2.796 21.88 1.867 7.129 4.762 13.558 8.692 19.283 3.929 5.729 8.858 10.325 14.787 13.787 5.925 3.463 13.021 5.196 21.283 5.196 8.125 0 15.184-1.733 21.18-5.196 5.996-3.462 10.963-8.058 14.883-13.787 3.93-5.725 6.83-12.154 8.7-19.283 1.86-7.125 2.8-14.421 2.8-21.88 0-7.325-.94-14.587-2.8-21.783-1.87-7.192-4.77-13.65-8.7-19.379-3.92-5.729-8.887-10.321-14.883-13.788-5.996-3.466-13.055-5.196-21.18-5.196-8.262 0-15.358 1.73-21.283 5.196zm123.196 112.696h11.38c9.86 0 18.82-1.062 26.88-3.196 8.06-2.129 14.92-5.525 20.58-10.191 5.66-4.659 10.06-10.721 13.19-18.184 3.13-7.458 4.69-16.516 4.69-27.175 0-10.654-1.5-19.612-4.49-26.875-3-7.258-7.03-13.091-12.09-17.483-5.06-4.4-11.06-7.563-17.99-9.496-6.92-1.929-14.25-2.896-21.98-2.896h-20.17zm-473.979-114.296-30.371 76.934h60.542zm923.479 18.875c-9.9 0-17.95-8.054-17.95-17.958s8.05-17.962 17.95-17.962c9.91 0 17.97 8.058 17.97 17.962s-8.06 17.958-17.97 17.958zm0-33.116c-8.35 0-15.15 6.8-15.15 15.158s6.8 15.158 15.15 15.158c8.36 0 15.17-6.8 15.17-15.158s-6.81-15.158-15.17-15.158zm-4.33 24.141h-2.49v-19.921h7.46c.81 0 1.6.076 2.36.234.77.154 1.49.483 2.17.987s1.2 1.142 1.57 1.917c.36.771.55 1.588.55 2.438 0 1.183-.33 2.245-.99 3.195-.66.946-1.57 1.588-2.73 1.913l3.92 9.237h-2.61l-3.69-8.625h-5.52zm4.68-10.658c.68 0 1.29-.058 1.84-.175.56-.117 1.08-.425 1.59-.929.35-.35.6-.75.76-1.204.17-.454.25-.925.25-1.409 0-.579-.11-1.104-.33-1.566-.23-.467-.58-.863-1.06-1.192-.45-.308-.89-.492-1.32-.55-.44-.058-.92-.088-1.44-.088h-4.97v7.113z" fill="#221e1f" transform="scale(.24)"/></g></g></svg>